<svg width="108" height="108" viewBox="0 0 108 108" fill="none" xmlns="http://www.w3.org/2000/svg">
<circle cx="54" cy="54" r="54" fill="#E5E548"/>
<path d="M20.4855 59.5H25.6455V58.24H21.9375V51.1H20.4855L20.4855 59.5ZM27.076 59.5H32.524V58.24H28.528V55.792H31.864V54.532H28.528V52.36H32.524V51.1H27.076V59.5ZM39.7344 52.36V51.1H33.4704V52.36H35.8824V59.5H37.3344V52.36H39.7344ZM41.8788 54.004L42.9348 51.1L41.4948 51.1L41.0748 54.004H41.8788ZM46.9147 52.24C47.8627 52.24 48.2347 52.684 48.3067 53.56H49.7347C49.6747 51.94 48.7507 50.98 46.9147 50.98C45.0427 50.98 44.2027 51.94 44.2027 53.26C44.2027 54.532 44.7787 55.108 46.2907 55.66L47.1187 55.96C48.1267 56.344 48.4147 56.608 48.4147 57.28C48.4147 58.012 48.0307 58.36 47.0707 58.36C46.0147 58.36 45.5707 57.964 45.4147 57.04H43.9867C44.1907 58.852 45.2707 59.62 47.0707 59.62C49.0147 59.62 49.8907 58.756 49.8907 57.208C49.8907 55.972 49.4107 55.348 47.7547 54.724L46.8787 54.388C45.9907 54.052 45.6907 53.836 45.6907 53.212C45.6907 52.648 46.0027 52.24 46.9147 52.24ZM61.6926 59.5H63.4326L65.6646 51.1H64.1406L62.5326 57.604L60.8646 51.1H59.1486L57.3966 57.604L55.8726 51.1H54.2766L56.5086 59.5H58.1046L59.9046 52.744L61.6926 59.5ZM70.0642 59.62C72.0802 59.62 73.3762 58.516 73.3762 56.452V54.148C73.3762 52.096 72.0802 50.98 70.0642 50.98C68.0482 50.98 66.7522 52.096 66.7522 54.16V56.452C66.7522 58.516 68.0482 59.62 70.0642 59.62ZM70.0642 52.24C71.3122 52.24 71.9002 53.008 71.9002 54.196V56.404C71.9002 57.592 71.3122 58.36 70.0642 58.36C68.8162 58.36 68.2282 57.592 68.2282 56.416V54.208C68.2282 53.008 68.8162 52.24 70.0642 52.24ZM76.8759 56.368H78.0519L79.7919 59.5H81.4359L79.4559 56.128C80.5119 55.792 81.0999 55.036 81.0999 53.968V53.524C81.0999 51.976 80.0559 51.1 78.0759 51.1H75.4239V59.5H76.8759V56.368ZM77.9919 52.36C79.1439 52.36 79.6119 52.84 79.6119 53.572V53.908C79.6119 54.64 79.0959 55.108 77.9919 55.108H76.8759V52.36H77.9919ZM87.7507 59.5H89.5507L86.3347 54.82L89.3707 51.1H87.6907L84.4507 55.192V51.1L82.9987 51.1V59.5H84.4507V57.16L85.3987 55.996L87.7507 59.5Z" fill="black"/>
</svg>
