<svg width="571" height="161" viewBox="0 0 571 161" fill="none" xmlns="http://www.w3.org/2000/svg">
<path d="M0.999966 160.04H-3.43323e-05V161.04H0.999966V160.04ZM97.32 160.04V161.04H98.32V160.04H97.32ZM97.32 136.52H98.32V135.52H97.32V136.52ZM28.104 136.52H27.104V137.52H28.104V136.52ZM28.104 3.24H29.104V2.24H28.104V3.24ZM0.999966 3.24V2.24H-3.43323e-05V3.24H0.999966ZM0.999966 161.04H97.32V159.04H0.999966V161.04ZM98.32 160.04V136.52H96.32V160.04H98.32ZM97.32 135.52H28.104V137.52H97.32V135.52ZM29.104 136.52V3.24H27.104V136.52H29.104ZM28.104 2.24H0.999966V4.24H28.104V2.24ZM-3.43323e-05 3.24V160.04H1.99997V3.24H-3.43323e-05ZM124.437 160.04H123.437V161.04H124.437V160.04ZM151.541 160.04V161.04H152.541V160.04H151.541ZM151.541 3.24H152.541V2.24H151.541V3.24ZM124.437 3.24V2.24H123.437V3.24H124.437ZM124.437 161.04H151.541V159.04H124.437V161.04ZM152.541 160.04V3.24H150.541V160.04H152.541ZM151.541 2.24H124.437V4.24H151.541V2.24ZM123.437 3.24V160.04H125.437V3.24H123.437ZM195.812 3.24V2.24H194.812V3.24H195.812ZM195.812 160.04H194.812V161.04H195.812V160.04ZM222.916 160.04V161.04H223.916V160.04H222.916ZM222.916 101.576V100.576H221.916V101.576H222.916ZM222.916 78.056H221.916V79.056H222.916V78.056ZM222.916 26.76V25.76H221.916V26.76H222.916ZM245.988 102.576C263.161 102.576 277.349 98.3969 287.265 90.544C297.21 82.6686 302.764 71.1708 302.764 56.776H300.764C300.764 70.6052 295.455 81.5074 286.024 88.9761C276.564 96.4671 262.864 100.576 245.988 100.576V102.576ZM302.764 56.776V48.488H300.764V56.776H302.764ZM302.764 48.488C302.764 33.7983 297.799 22.1759 288.03 14.2514C278.295 6.35397 263.925 2.24 245.316 2.24V4.24C263.668 4.24 277.522 8.30202 286.77 15.8046C295.986 23.2801 300.764 34.2817 300.764 48.488H302.764ZM245.316 2.24H195.812V4.24H245.316V2.24ZM194.812 3.24V160.04H196.812V3.24H194.812ZM195.812 161.04H222.916V159.04H195.812V161.04ZM223.916 160.04V101.576H221.916V160.04H223.916ZM222.916 102.576H245.988V100.576H222.916V102.576ZM243.748 27.76C254.385 27.76 261.681 29.9795 266.303 33.7249C270.888 37.4401 272.988 42.7779 272.988 49.384H274.988C274.988 42.3261 272.721 36.3519 267.562 32.1711C262.44 28.0205 254.616 25.76 243.748 25.76V27.76ZM272.988 49.384V55.656H274.988V49.384H272.988ZM272.988 55.656C272.988 62.2316 270.684 67.5189 265.981 71.1918C261.239 74.8946 253.932 77.056 243.748 77.056V79.056C254.173 79.056 261.986 76.8494 267.212 72.7682C272.477 68.6571 274.988 62.7444 274.988 55.656H272.988ZM243.748 77.056H222.916V79.056H243.748V77.056ZM223.916 78.056V26.76H221.916V78.056H223.916ZM222.916 27.76H243.748V25.76H222.916V27.76ZM333.031 160.04H332.031V161.04H333.031V160.04ZM419.943 77.16L419.474 76.2771L417.521 77.3159L419.591 78.0958L419.943 77.16ZM333.031 3.24V2.24H332.031V3.24H333.031ZM360.135 68.424H359.135V69.424H360.135V68.424ZM360.135 26.76V25.76H359.135V26.76H360.135ZM360.135 136.52H359.135V137.52H360.135V136.52ZM360.135 90.376V89.376H359.135V90.376H360.135ZM333.031 161.04H391.271V159.04H333.031V161.04ZM391.271 161.04C406.874 161.04 420.278 157.254 429.803 149.737C439.359 142.196 444.911 130.976 444.911 116.36H442.911C442.911 130.416 437.599 141.036 428.564 148.167C419.497 155.322 406.58 159.04 391.271 159.04V161.04ZM444.911 116.36V110.76H442.911V116.36H444.911ZM444.911 110.76C444.911 102.294 442.735 95.1366 438.533 89.341C434.334 83.55 428.165 79.1896 420.296 76.2242L419.591 78.0958C427.177 80.9545 432.992 85.106 436.914 90.515C440.832 95.9194 442.911 102.65 442.911 110.76H444.911ZM420.413 78.0429C431.228 72.2903 437.743 63.0125 437.743 50.056H435.743C435.743 62.1875 429.715 70.8297 419.474 76.2771L420.413 78.0429ZM437.743 50.056V44.232H435.743V50.056H437.743ZM437.743 44.232C437.743 30.6457 432.934 20.0854 423.778 12.9512C414.661 5.8475 401.362 2.24 384.551 2.24V4.24C401.116 4.24 413.913 7.80049 422.549 14.5288C431.145 21.2266 435.743 31.1623 435.743 44.232H437.743ZM384.551 2.24H333.031V4.24H384.551V2.24ZM332.031 3.24V160.04H334.031V3.24H332.031ZM382.759 27.76C391.621 27.76 397.927 29.4264 401.995 32.3847C406.008 35.3029 407.967 39.57 407.967 45.128H409.967C409.967 39.038 407.783 34.1211 403.171 30.7673C398.615 27.4536 391.817 25.76 382.759 25.76V27.76ZM407.967 45.128V49.832H409.967V45.128H407.967ZM407.967 49.832C407.967 55.1603 406.01 59.4988 402.058 62.535C398.068 65.5999 391.932 67.424 383.431 67.424V69.424C392.179 69.424 398.81 67.5521 403.276 64.121C407.78 60.6612 409.967 55.7037 409.967 49.832H407.967ZM383.431 67.424H360.135V69.424H383.431V67.424ZM361.135 68.424V26.76H359.135V68.424H361.135ZM360.135 27.76H382.759V25.76H360.135V27.76ZM389.031 91.376C397.979 91.376 404.502 93.3118 408.768 96.6771C412.998 100.014 415.135 104.855 415.135 110.984H417.135C417.135 104.345 414.793 98.8823 410.007 95.1069C405.257 91.3602 398.228 89.376 389.031 89.376V91.376ZM415.135 110.984V115.464H417.135V110.984H415.135ZM415.135 115.464C415.135 121.48 412.998 126.443 408.753 129.923C404.483 133.424 397.961 135.52 389.031 135.52V137.52C398.245 137.52 405.276 135.36 410.021 131.469C414.793 127.557 417.135 121.992 417.135 115.464H415.135ZM389.031 135.52H360.135V137.52H389.031V135.52ZM361.135 136.52V90.376H359.135V136.52H361.135ZM360.135 91.376H389.031V89.376H360.135V91.376ZM574.637 160.04L573.691 160.362L573.921 161.04H574.637V160.04ZM603.981 160.04V161.04H605.399L604.924 159.705L603.981 160.04ZM548.205 3.24L549.148 2.90485L548.911 2.24H548.205V3.24ZM519.533 3.24V2.24H518.829L518.592 2.90366L519.533 3.24ZM463.533 160.04L462.592 159.704L462.114 161.04H463.533V160.04ZM491.981 160.04V161.04H492.698L492.928 160.362L491.981 160.04ZM503.405 126.44V125.44H502.689L502.459 126.118L503.405 126.44ZM563.213 126.44L564.16 126.118L563.93 125.44H563.213V126.44ZM555.597 102.92V103.92H556.989L556.545 102.601L555.597 102.92ZM510.573 102.92L509.627 102.598L509.177 103.92H510.573V102.92ZM533.197 36.392L534.145 36.0729L533.202 33.2722L532.251 36.07L533.197 36.392ZM574.637 161.04H603.981V159.04H574.637V161.04ZM604.924 159.705L549.148 2.90485L547.263 3.57514L603.039 160.375L604.924 159.705ZM548.205 2.24H519.533V4.24H548.205V2.24ZM518.592 2.90366L462.592 159.704L464.475 160.376L520.475 3.57633L518.592 2.90366ZM463.533 161.04H491.981V159.04H463.533V161.04ZM492.928 160.362L504.352 126.762L502.459 126.118L491.035 159.718L492.928 160.362ZM503.405 127.44H563.213V125.44H503.405V127.44ZM562.267 126.762L573.691 160.362L575.584 159.718L564.16 126.118L562.267 126.762ZM555.597 101.92H510.573V103.92H555.597V101.92ZM511.52 103.242L534.144 36.714L532.251 36.07L509.627 102.598L511.52 103.242ZM532.25 36.7111L554.65 103.239L556.545 102.601L534.145 36.0729L532.25 36.7111ZM632.406 160.04H631.406V161.04H632.406V160.04ZM728.726 160.04V161.04H729.726V160.04H728.726ZM728.726 136.52H729.726V135.52H728.726V136.52ZM659.51 136.52H658.51V137.52H659.51V136.52ZM659.51 3.24H660.51V2.24H659.51V3.24ZM632.406 3.24V2.24H631.406V3.24H632.406ZM632.406 161.04H728.726V159.04H632.406V161.04ZM729.726 160.04V136.52H727.726V160.04H729.726ZM728.726 135.52H659.51V137.52H728.726V135.52ZM660.51 136.52V3.24H658.51V136.52H660.51ZM659.51 2.24H632.406V4.24H659.51V2.24ZM631.406 3.24V160.04H633.406V3.24H631.406ZM824.648 49.16L823.652 49.2419L823.727 50.16H824.648V49.16ZM851.304 49.16V50.16H852.342L852.304 49.123L851.304 49.16ZM787.016 88.36L786.674 89.2994L786.676 89.3002L787.016 88.36ZM802.472 93.96L802.828 93.0255L802.821 93.0226L802.813 93.0198L802.472 93.96ZM770.664 114.12L771.651 113.954L771.51 113.12H770.664V114.12ZM744.008 114.12V113.12H742.89L743.015 114.232L744.008 114.12ZM814.344 70.888L813.986 71.8217L813.992 71.8238L814.344 70.888ZM797.992 64.616L798.351 63.6823L798.346 63.6807L797.992 64.616ZM798.664 25.52C807.368 25.52 813.224 27.5578 817.081 31.4151C820.954 35.2878 822.988 41.1669 823.652 49.2419L825.645 49.0781C824.965 40.8011 822.855 34.3602 818.496 30.0009C814.121 25.6262 807.656 23.52 798.664 23.52V25.52ZM824.648 50.16H851.304V48.16H824.648V50.16ZM852.304 49.123C851.737 33.8237 847.083 21.5032 838.104 13.0134C829.127 4.52586 815.969 0 798.664 0V2C815.632 2 828.234 6.43414 836.729 14.4666C845.222 22.4968 849.752 34.2563 850.305 49.197L852.304 49.123ZM798.664 0C781.03 0 768.102 4.52237 759.575 12.3012C751.036 20.0901 747.04 31.0233 747.04 43.56H749.04C749.04 31.4567 752.885 21.1099 760.922 13.7788C768.97 6.43763 781.354 2 798.664 2V0ZM747.04 43.56C747.04 55.5955 749.771 64.4862 756.199 71.667C762.586 78.8012 772.524 84.1338 786.674 89.2994L787.359 87.4206C773.284 82.2822 763.735 77.0868 757.69 70.333C751.685 63.6258 749.04 55.2685 749.04 43.56H747.04ZM786.676 89.3002L802.132 94.9002L802.813 93.0198L787.357 87.4198L786.676 89.3002ZM802.116 94.8945C811.528 98.4799 817.388 101.442 820.917 104.971C824.366 108.42 825.664 112.494 825.664 118.6H827.664C827.664 112.162 826.275 107.5 822.332 103.557C818.469 99.6938 812.233 96.6081 802.828 93.0255L802.116 94.8945ZM825.664 118.6C825.664 125.262 823.922 129.96 820.203 133.033C816.439 136.144 810.453 137.76 801.576 137.76V139.76C810.62 139.76 817.178 138.128 821.477 134.575C825.823 130.984 827.664 125.602 827.664 118.6H825.664ZM801.576 137.76C791.824 137.76 785.096 135.928 780.453 132.134C775.819 128.347 773.087 122.462 771.651 113.954L769.678 114.286C771.154 123.026 774.022 129.461 779.188 133.682C784.345 137.896 791.617 139.76 801.576 139.76V137.76ZM770.664 113.12H744.008V115.12H770.664V113.12ZM743.015 114.232C744.939 131.326 751.017 143.642 760.994 151.663C770.953 159.67 784.649 163.28 801.576 163.28V161.28C784.904 161.28 771.72 157.722 762.247 150.105C752.792 142.502 746.886 130.738 745.002 114.008L743.015 114.232ZM801.576 163.28C819.848 163.28 833.289 159.222 842.168 151.352C851.07 143.462 855.216 131.892 855.216 117.256H853.216C853.216 131.516 849.187 142.458 840.841 149.856C832.472 157.274 819.593 161.28 801.576 161.28V163.28ZM855.216 117.256C855.216 105.585 852.947 96.6406 846.638 89.1441C840.364 81.6909 830.197 75.7928 814.697 69.9522L813.992 71.8238C829.404 77.6312 839.173 83.3811 845.107 90.432C851.006 97.4395 853.216 105.855 853.216 117.256H855.216ZM814.703 69.9543L798.351 63.6823L797.634 65.5497L813.986 71.8217L814.703 69.9543ZM798.346 63.6807C790.041 60.5383 784.68 58.0204 781.372 54.9257C778.156 51.9173 776.816 48.2949 776.816 42.664H774.816C774.816 48.6811 776.277 52.8987 780.005 56.3863C783.641 59.7876 789.368 62.4217 797.639 65.5513L798.346 63.6807ZM776.816 42.664C776.816 37.582 778.217 33.3594 781.525 30.3879C784.853 27.3978 790.281 25.52 798.664 25.52V23.52C790.024 23.52 784.028 25.4503 780.188 28.9001C776.328 32.3686 774.816 37.218 774.816 42.664H776.816Z" fill="#666666"/>
</svg>
