<svg width="80" height="78" viewBox="0 0 80 78" fill="none" xmlns="http://www.w3.org/2000/svg">
<path d="M35.9558 19.2C38.8958 19.2 40.6358 17.58 40.6358 14.72V9.28C40.6358 6.42 38.8958 4.8 35.9558 4.8C33.0358 4.8 31.2958 6.42 31.2958 9.3V14.72C31.2958 17.6 33.0358 19.2 35.9558 19.2ZM35.9558 6.5C37.8158 6.5 38.6158 7.62 38.6158 9.32V14.68C38.6158 16.38 37.8158 17.5 35.9558 17.5C34.1158 17.5 33.3158 16.38 33.3158 14.68V9.34C33.3158 7.62 34.1158 6.5 35.9558 6.5ZM46.5586 5L43.3986 6.12V7.84L46.3786 6.84V19H48.3386V5H46.5586Z" fill="white"/>
<path d="M44 32L36 45.8564" stroke="#666666" stroke-width="0.8"/>
<path d="M36.1731 69.9764C37.9371 69.9764 38.9811 69.0044 38.9811 67.2884V64.0244C38.9811 62.3084 37.9371 61.3364 36.1731 61.3364C34.4211 61.3364 33.3771 62.3084 33.3771 64.0364V67.2884C33.3771 69.0164 34.4211 69.9764 36.1731 69.9764ZM36.1731 62.3564C37.2891 62.3564 37.7691 63.0284 37.7691 64.0484V67.2644C37.7691 68.2844 37.2891 68.9564 36.1731 68.9564C35.0691 68.9564 34.5891 68.2844 34.5891 67.2644V64.0604C34.5891 63.0284 35.0691 62.3564 36.1731 62.3564ZM43.9508 69.9764C45.8108 69.9764 46.7948 69.0404 46.7948 67.6124V67.3364C46.7948 66.4244 46.3268 65.7764 45.5468 65.4644C46.2068 65.1524 46.5548 64.5644 46.5548 63.8084V63.5204C46.5548 62.1044 45.5348 61.3364 43.9748 61.3364C42.3788 61.3364 41.3588 62.1044 41.3588 63.5204V63.8084C41.3588 64.5644 41.7068 65.1524 42.3788 65.4644C41.5868 65.7884 41.1188 66.4244 41.1188 67.3364V67.6124C41.1188 69.0404 42.1028 69.9764 43.9508 69.9764ZM43.9988 62.3564C44.8988 62.3564 45.3548 62.8364 45.3548 63.5684V63.7604C45.3548 64.5284 44.8988 64.9844 43.9148 64.9844C43.0148 64.9844 42.5588 64.5284 42.5588 63.7604V63.5684C42.5588 62.8364 43.0148 62.3564 43.9988 62.3564ZM43.9868 66.0044C45.0668 66.0044 45.5948 66.5444 45.5948 67.3724V67.5644C45.5948 68.4164 45.0788 68.9564 43.9268 68.9564C42.8468 68.9564 42.3188 68.4164 42.3188 67.5644V67.3724C42.3188 66.5444 42.8348 66.0044 43.9868 66.0044Z" fill="#666666"/>
</svg>
