<svg width="478" height="161" viewBox="0 0 478 161" fill="none" xmlns="http://www.w3.org/2000/svg">
<mask id="path-1-outside-1_323_209" maskUnits="userSpaceOnUse" x="-0.0595703" y="-0.959991" width="787" height="165" fill="black">
<rect fill="white" x="-0.0595703" y="-0.959991" width="787" height="165"/>
<path d="M139.732 160.04H172.212L213.876 3.24H185.428L155.412 124.648L124.276 3.24H92.2444L59.5404 124.648L31.0924 3.24H1.30043L42.9644 160.04H72.7564L106.356 33.928L139.732 160.04ZM296.418 162.28C334.05 162.28 358.242 141.672 358.242 103.144V60.136C358.242 21.832 334.05 1 296.418 1C258.786 1 234.594 21.832 234.594 60.36V103.144C234.594 141.672 258.786 162.28 296.418 162.28ZM296.418 24.52C319.714 24.52 330.69 38.856 330.69 61.032V102.248C330.69 124.424 319.714 138.76 296.418 138.76C273.122 138.76 262.146 124.424 262.146 102.472V61.256C262.146 38.856 273.122 24.52 296.418 24.52ZM423.986 101.576H445.938L478.418 160.04H509.106L472.146 97.096C491.858 90.824 502.834 76.712 502.834 56.776V48.488C502.834 19.592 483.346 3.24 446.386 3.24H396.882V160.04H423.986V101.576ZM444.818 26.76C466.322 26.76 475.058 35.72 475.058 49.384V55.656C475.058 69.32 465.426 78.056 444.818 78.056H423.986V26.76H444.818ZM627.398 160.04H660.998L600.966 72.68L657.638 3.24H626.278L565.798 79.624V3.24H538.694V160.04H565.798V116.36L583.494 94.632L627.398 160.04ZM730.327 24.52C748.023 24.52 754.967 32.808 756.311 49.16H782.967C781.847 18.92 764.599 1 730.327 1C695.383 1 679.703 18.92 679.703 43.56C679.703 67.304 690.455 78.056 718.679 88.36L734.135 93.96C752.951 101.128 758.327 106.056 758.327 118.6C758.327 132.264 751.159 138.76 733.239 138.76C713.527 138.76 705.239 131.368 702.327 114.12H675.671C679.479 147.944 699.639 162.28 733.239 162.28C769.527 162.28 785.879 146.152 785.879 117.256C785.879 94.184 776.919 82.536 746.007 70.888L729.655 64.616C713.079 58.344 707.479 54.312 707.479 42.664C707.479 32.136 713.303 24.52 730.327 24.52Z"/>
</mask>
<path d="M139.732 160.04L138.766 160.296L138.963 161.04H139.732V160.04ZM172.212 160.04V161.04H172.981L173.179 160.297L172.212 160.04ZM213.876 3.24L214.843 3.4968L215.177 2.24H213.876V3.24ZM185.428 3.24V2.24H184.646L184.458 2.99999L185.428 3.24ZM155.412 124.648L154.444 124.896L156.383 124.888L155.412 124.648ZM124.276 3.24L125.245 2.99158L125.052 2.24H124.276V3.24ZM92.2444 3.24V2.24H91.4782L91.2789 2.9799L92.2444 3.24ZM59.5404 124.648L58.5668 124.876L60.506 124.908L59.5404 124.648ZM31.0924 3.24L32.0661 3.01186L31.8852 2.24H31.0924V3.24ZM1.30043 3.24V2.24H1.54972e-05L0.333966 3.4968L1.30043 3.24ZM42.9644 160.04L41.998 160.297L42.1954 161.04H42.9644V160.04ZM72.7564 160.04V161.04H73.5249L73.7227 160.297L72.7564 160.04ZM106.356 33.928L107.323 33.6722L106.36 30.0316L105.39 33.6705L106.356 33.928ZM139.732 161.04H172.212V159.04H139.732V161.04ZM173.179 160.297L214.843 3.4968L212.91 2.98319L171.246 159.783L173.179 160.297ZM213.876 2.24H185.428V4.24H213.876V2.24ZM184.458 2.99999L154.442 124.408L156.383 124.888L186.399 3.48L184.458 2.99999ZM156.381 124.4L125.245 2.99158L123.308 3.48842L154.444 124.896L156.381 124.4ZM124.276 2.24H92.2444V4.24H124.276V2.24ZM91.2789 2.9799L58.5748 124.388L60.506 124.908L93.21 3.5001L91.2789 2.9799ZM60.5141 124.42L32.0661 3.01186L30.1188 3.46814L58.5668 124.876L60.5141 124.42ZM31.0924 2.24H1.30043V4.24H31.0924V2.24ZM0.333966 3.4968L41.998 160.297L43.9309 159.783L2.26689 2.98319L0.333966 3.4968ZM42.9644 161.04H72.7564V159.04H42.9644V161.04ZM73.7227 160.297L107.323 34.1855L105.39 33.6705L71.7901 159.783L73.7227 160.297ZM105.39 34.1839L138.766 160.296L140.699 159.784L107.323 33.6722L105.39 34.1839ZM296.418 163.28C315.41 163.28 331.136 158.079 342.122 147.893C353.12 137.697 359.242 122.624 359.242 103.144H357.242C357.242 122.192 351.269 136.687 340.762 146.427C330.245 156.177 315.059 161.28 296.418 161.28V163.28ZM359.242 103.144V60.136H357.242V103.144H359.242ZM359.242 60.136C359.242 40.7667 353.119 25.6944 342.123 15.4716C331.138 5.25881 315.412 0 296.418 0V2C315.056 2 330.242 7.15718 340.761 16.9364C351.269 26.7056 357.242 41.2013 357.242 60.136H359.242ZM296.418 0C277.424 0 261.698 5.25885 250.712 15.5006C239.716 25.752 233.594 40.8803 233.594 60.36H235.594C235.594 41.3117 241.568 26.76 252.076 16.9634C262.595 7.15714 277.78 2 296.418 2V0ZM233.594 60.36V103.144H235.594V60.36H233.594ZM233.594 103.144C233.594 122.624 239.717 137.697 250.714 147.893C261.701 158.079 277.427 163.28 296.418 163.28V161.28C277.778 161.28 262.592 156.177 252.074 146.427C241.568 136.687 235.594 122.192 235.594 103.144H233.594ZM296.418 25.52C307.854 25.52 316.121 29.0312 321.543 35.1248C326.983 41.2379 329.69 50.0951 329.69 61.032H331.69C331.69 49.7929 328.909 40.3941 323.037 33.7952C317.148 27.1768 308.278 23.52 296.418 23.52V25.52ZM329.69 61.032V102.248H331.69V61.032H329.69ZM329.69 102.248C329.69 113.185 326.983 122.042 321.543 128.155C316.121 134.249 307.854 137.76 296.418 137.76V139.76C308.278 139.76 317.148 136.103 323.037 129.485C328.909 122.886 331.69 113.487 331.69 102.248H329.69ZM296.418 137.76C284.982 137.76 276.715 134.249 271.292 128.182C265.852 122.096 263.146 113.295 263.146 102.472H261.146C261.146 113.601 263.928 122.944 269.801 129.514C275.69 136.103 284.558 139.76 296.418 139.76V137.76ZM263.146 102.472V61.256H261.146V102.472H263.146ZM263.146 61.256C263.146 50.2049 265.854 41.2916 271.295 35.1511C276.717 29.0311 284.982 25.52 296.418 25.52V23.52C284.558 23.52 275.688 27.1769 269.798 33.8249C263.926 40.4524 261.146 49.9071 261.146 61.256H263.146ZM423.986 101.576V100.576H422.986V101.576H423.986ZM445.938 101.576L446.812 101.09L446.526 100.576H445.938V101.576ZM478.418 160.04L477.544 160.526L477.829 161.04H478.418V160.04ZM509.106 160.04V161.04H510.853L509.968 159.534L509.106 160.04ZM472.146 97.096L471.842 96.1431L470.649 96.5227L471.283 97.6024L472.146 97.096ZM396.882 3.24V2.24H395.882V3.24H396.882ZM396.882 160.04H395.882V161.04H396.882V160.04ZM423.986 160.04V161.04H424.986V160.04H423.986ZM423.986 78.056H422.986V79.056H423.986V78.056ZM423.986 26.76V25.76H422.986V26.76H423.986ZM423.986 102.576H445.938V100.576H423.986V102.576ZM445.064 102.062L477.544 160.526L479.292 159.554L446.812 101.09L445.064 102.062ZM478.418 161.04H509.106V159.04H478.418V161.04ZM509.968 159.534L473.008 96.5897L471.283 97.6024L508.243 160.546L509.968 159.534ZM472.449 98.0489C482.461 94.8632 490.321 89.664 495.676 82.6678C501.034 75.6675 503.834 66.9345 503.834 56.776H501.834C501.834 66.5535 499.145 74.8445 494.088 81.4522C489.027 88.064 481.542 93.0568 471.842 96.1431L472.449 98.0489ZM503.834 56.776V48.488H501.834V56.776H503.834ZM503.834 48.488C503.834 33.7983 498.868 22.1759 489.1 14.2514C479.364 6.35397 464.994 2.24 446.386 2.24V4.24C464.737 4.24 478.591 8.30202 487.84 15.8046C497.055 23.2801 501.834 34.2817 501.834 48.488H503.834ZM446.386 2.24H396.882V4.24H446.386V2.24ZM395.882 3.24V160.04H397.882V3.24H395.882ZM396.882 161.04H423.986V159.04H396.882V161.04ZM424.986 160.04V101.576H422.986V160.04H424.986ZM444.818 27.76C455.454 27.76 462.75 29.9795 467.372 33.7249C471.957 37.4401 474.058 42.7779 474.058 49.384H476.058C476.058 42.3261 473.791 36.3519 468.631 32.1711C463.509 28.0205 455.685 25.76 444.818 25.76V27.76ZM474.058 49.384V55.656H476.058V49.384H474.058ZM474.058 55.656C474.058 62.2316 471.754 67.5189 467.05 71.1918C462.309 74.8946 455.001 77.056 444.818 77.056V79.056C455.242 79.056 463.055 76.8494 468.281 72.7682C473.546 68.6571 476.058 62.7444 476.058 55.656H474.058ZM444.818 77.056H423.986V79.056H444.818V77.056ZM424.986 78.056V26.76H422.986V78.056H424.986ZM423.986 27.76H444.818V25.76H423.986V27.76ZM627.398 160.04L626.568 160.597L626.865 161.04H627.398V160.04ZM660.998 160.04V161.04H662.899L661.822 159.474L660.998 160.04ZM600.966 72.68L600.191 72.0477L599.717 72.6285L600.142 73.2464L600.966 72.68ZM657.638 3.24L658.413 3.87228L659.745 2.24H657.638V3.24ZM626.278 3.24V2.24H625.794L625.494 2.61924L626.278 3.24ZM565.798 79.624H564.798V82.4979L566.582 80.2448L565.798 79.624ZM565.798 3.24H566.798V2.24H565.798V3.24ZM538.694 3.24V2.24H537.694V3.24H538.694ZM538.694 160.04H537.694V161.04H538.694V160.04ZM565.798 160.04V161.04H566.798V160.04H565.798ZM565.798 116.36L565.023 115.729L564.798 116.004V116.36H565.798ZM583.494 94.632L584.324 94.0747L583.572 92.9532L582.719 94.0005L583.494 94.632ZM627.398 161.04H660.998V159.04H627.398V161.04ZM661.822 159.474L601.79 72.1137L600.142 73.2464L660.174 160.606L661.822 159.474ZM601.741 73.3123L658.413 3.87228L656.863 2.60771L600.191 72.0477L601.741 73.3123ZM657.638 2.24H626.278V4.24H657.638V2.24ZM625.494 2.61924L565.014 79.0032L566.582 80.2448L627.062 3.86076L625.494 2.61924ZM566.798 79.624V3.24H564.798V79.624H566.798ZM565.798 2.24H538.694V4.24H565.798V2.24ZM537.694 3.24V160.04H539.694V3.24H537.694ZM538.694 161.04H565.798V159.04H538.694V161.04ZM566.798 160.04V116.36H564.798V160.04H566.798ZM566.574 116.992L584.27 95.2635L582.719 94.0005L565.023 115.729L566.574 116.992ZM582.664 95.1893L626.568 160.597L628.228 159.483L584.324 94.0747L582.664 95.1893ZM756.311 49.16L755.315 49.2419L755.39 50.16H756.311V49.16ZM782.967 49.16V50.16H784.005L783.967 49.123L782.967 49.16ZM718.679 88.36L718.336 89.2994L718.339 89.3002L718.679 88.36ZM734.135 93.96L734.491 93.0255L734.484 93.0226L734.476 93.0198L734.135 93.96ZM702.327 114.12L703.313 113.954L703.173 113.12H702.327V114.12ZM675.671 114.12V113.12H674.553L674.678 114.232L675.671 114.12ZM746.007 70.888L745.649 71.8217L745.655 71.8238L746.007 70.888ZM729.655 64.616L730.014 63.6823L730.009 63.6807L729.655 64.616ZM730.327 25.52C739.031 25.52 744.887 27.5578 748.744 31.4151C752.617 35.2878 754.651 41.1669 755.315 49.2419L757.308 49.0781C756.628 40.8011 754.518 34.3602 750.159 30.0009C745.784 25.6262 739.319 23.52 730.327 23.52V25.52ZM756.311 50.16H782.967V48.16H756.311V50.16ZM783.967 49.123C783.4 33.8237 778.746 21.5032 769.766 13.0134C760.79 4.52586 747.632 0 730.327 0V2C747.295 2 759.897 6.43414 768.392 14.4666C776.885 22.4968 781.415 34.2563 781.968 49.197L783.967 49.123ZM730.327 0C712.693 0 699.765 4.52237 691.237 12.3012C682.699 20.0901 678.703 31.0233 678.703 43.56H680.703C680.703 31.4567 684.548 21.1099 692.585 13.7788C700.633 6.43763 713.017 2 730.327 2V0ZM678.703 43.56C678.703 55.5955 681.434 64.4862 687.862 71.667C694.249 78.8012 704.187 84.1338 718.336 89.2994L719.022 87.4206C704.947 82.2822 695.398 77.0868 689.353 70.333C683.348 63.6258 680.703 55.2685 680.703 43.56H678.703ZM718.339 89.3002L733.795 94.9002L734.476 93.0198L719.02 87.4198L718.339 89.3002ZM733.779 94.8945C743.191 98.4799 749.051 101.442 752.58 104.971C756.029 108.42 757.327 112.494 757.327 118.6H759.327C759.327 112.162 757.938 107.5 753.995 103.557C750.131 99.6938 743.896 96.6081 734.491 93.0255L733.779 94.8945ZM757.327 118.6C757.327 125.262 755.585 129.96 751.866 133.033C748.102 136.144 742.116 137.76 733.239 137.76V139.76C742.283 139.76 748.841 138.128 753.14 134.575C757.486 130.984 759.327 125.602 759.327 118.6H757.327ZM733.239 137.76C723.487 137.76 716.759 135.928 712.116 132.134C707.482 128.347 704.75 122.462 703.313 113.954L701.341 114.286C702.817 123.026 705.685 129.461 710.851 133.682C716.008 137.896 723.28 139.76 733.239 139.76V137.76ZM702.327 113.12H675.671V115.12H702.327V113.12ZM674.678 114.232C676.602 131.326 682.68 143.642 692.657 151.663C702.615 159.67 716.312 163.28 733.239 163.28V161.28C716.567 161.28 703.383 157.722 693.91 150.105C684.455 142.502 678.549 130.738 676.665 114.008L674.678 114.232ZM733.239 163.28C751.511 163.28 764.952 159.222 773.831 151.352C782.733 143.462 786.879 131.892 786.879 117.256H784.879C784.879 131.516 780.85 142.458 772.504 149.856C764.135 157.274 751.256 161.28 733.239 161.28V163.28ZM786.879 117.256C786.879 105.585 784.61 96.6406 778.3 89.1441C772.027 81.6909 761.86 75.7928 746.36 69.9522L745.655 71.8238C761.067 77.6312 770.836 83.3811 776.77 90.432C782.669 97.4395 784.879 105.855 784.879 117.256H786.879ZM746.366 69.9543L730.014 63.6823L729.297 65.5497L745.649 71.8217L746.366 69.9543ZM730.009 63.6807C721.704 60.5383 716.343 58.0204 713.035 54.9257C709.819 51.9173 708.479 48.2949 708.479 42.664H706.479C706.479 48.6811 707.94 52.8987 711.668 56.3863C715.304 59.7876 721.031 62.4217 729.302 65.5513L730.009 63.6807ZM708.479 42.664C708.479 37.582 709.88 33.3594 713.188 30.3879C716.516 27.3978 721.944 25.52 730.327 25.52V23.52C721.687 23.52 715.691 25.4503 711.851 28.9001C707.991 32.3686 706.479 37.218 706.479 42.664H708.479Z" fill="#666666" mask="url(#path-1-outside-1_323_209)"/>
</svg>
